<svg width="32" height="32" viewBox="0 0 32 32" fill="none" xmlns="http://www.w3.org/2000/svg">
<g clip-path="url(#clip0_730_1425)">
<path d="M5.33333 16.0001C5.33333 14.5273 4.13943 13.3334 2.66667 13.3334C1.19391 13.3334 0 14.5273 0 16.0001C0 17.4728 1.19391 18.6667 2.66667 18.6667C4.13943 18.6667 5.33333 17.4728 5.33333 16.0001Z" fill="white"/>
<path d="M18.6663 16.0001C18.6663 14.5273 17.4724 13.3334 15.9997 13.3334C14.5269 13.3334 13.333 14.5273 13.333 16.0001C13.333 17.4728 14.5269 18.6667 15.9997 18.6667C17.4724 18.6667 18.6663 17.4728 18.6663 16.0001Z" fill="white"/>
<path d="M32.0003 16.0001C32.0003 14.5273 30.8064 13.3334 29.3337 13.3334C27.8609 13.3334 26.667 14.5273 26.667 16.0001C26.667 17.4728 27.8609 18.6667 29.3337 18.6667C30.8064 18.6667 32.0003 17.4728 32.0003 16.0001Z" fill="white"/>
</g>
<defs>
<clipPath id="clip0_730_1425">
<rect width="31.3333" height="32" fill="white" transform="matrix(0 -1 1 0 0 31.6667)"/>
</clipPath>
</defs>
</svg>
